<svg width="542" height="538" viewBox="0 0 542 538" fill="none" xmlns="http://www.w3.org/2000/svg">
<g clip-path="url(#clip0_1_2)">
<rect width="542" height="538" fill="white"/>
<ellipse cx="459.5" cy="217" rx="52.5" ry="52" fill="#0F47B8"/>
<path d="M472.5 235.5C468.656 261.739 431.134 245.838 433.317 244.919C435.5 244 444.274 242.795 453.403 240.554C459.38 239.086 465.901 237.36 472.5 235.5Z" fill="black"/>
<path d="M458.772 222.172C456.036 220.664 456.493 215.653 457.064 213.336C457.634 211.019 459.497 206.958 462.385 209.251C465.273 211.545 464.728 216.098 464.094 218.088C463.46 220.077 461.508 223.68 458.772 222.172Z" fill="black"/>
<path d="M433.772 220.172C431.036 218.664 431.493 213.653 432.064 211.336C432.634 209.019 434.497 204.958 437.385 207.251C440.273 209.545 439.728 214.098 439.094 216.088C438.46 218.077 436.508 221.68 433.772 220.172Z" fill="black"/>
<path d="M141 263C142.5 260.667 148.2 259.3 149 270.5C149.8 281.7 146 282 145 281" stroke="black" stroke-width="3"/>
<ellipse cx="92.5" cy="282" rx="52.5" ry="52" fill="#D5214B"/>
<path d="M460.896 272.832C439.099 274.322 410.533 265.589 398.974 261.036C390.718 257.725 371.787 240.543 347.514 223.656C335.13 216.827 334.534 210.727 310.591 189.619C304.192 185.894 291.519 183.287 292.014 202.656C292.633 226.868 389.304 299.912 406.405 307.598C424.362 315.668 451.608 455.353 447.892 476.461C445.382 490.72 439.017 611.179 437.985 670.157H491.857C491.237 607.454 493.219 525.106 506.098 517.656C516.997 518.153 539.949 604.557 550.062 670.157H600.219C595.884 630.217 582.138 532.211 561.828 459.699C536.44 369.059 536.44 335.535 535.201 316.91C536.44 313.185 531.486 292.698 533.963 302.01C536.31 310.833 540.361 328.085 545.109 341.122C558.319 385.407 591.426 469.88 618.176 453.491C630.56 452.001 623.336 435.073 618.176 426.795C605.585 404.239 579.289 346.834 574.831 297.665C569.258 236.203 541.394 255.449 535.201 251.103C530.248 247.627 513.735 256.277 506.098 261.036C500.113 264.347 482.692 271.342 460.896 272.832Z" fill="#0F47B8"/>
<path d="M92.1868 350.186C113.992 351.674 139.446 332.733 151.01 328.186C159.88 325.248 183.184 300.615 191.895 288.505C203.046 273.004 208.001 253.784 208.001 253.784C208.001 253.784 211.099 240.35 211.099 232.703C210.479 229.81 220.267 220.675 227.205 222.163C234.143 223.651 234.845 231.05 235.878 232.703C238.356 235.596 236.373 245.847 233.4 261.224C229.683 280.445 229.683 276.725 222.869 292.225C219.865 299.059 198.702 338.314 189.5 346.5C183.334 351.985 145.435 390.809 132.426 400.109C125.565 405.014 107.665 493.618 105.196 553.553C110.647 566.946 114.075 688.098 115.107 747H61.2132C61.8327 684.378 59.8504 557.273 46.9653 549.833C36.0626 550.329 13.1009 681.484 2.98282 747H-47.1945C-42.8582 707.112 -29.1058 609.231 -8.78716 536.812C16.6112 446.289 17.8235 397.629 19.0624 379.028C17.8235 375.308 20.9208 361.048 19.0624 370.348C17.2756 379.29 12.6879 405.368 7.93858 418.388C-5.27682 462.616 -38.3979 546.981 -65.1591 530.612C-77.5486 529.124 -70.3214 512.218 -65.1591 503.951C-52.5632 481.424 -26.2563 424.092 -21.7961 374.987C-16.2208 313.604 10.2885 328.485 17.8501 328.485C25.2571 328.485 39.3252 333.652 46.9653 338.405C52.9536 341.712 70.3814 348.698 92.1868 350.186Z" fill="#D5214B"/>
<path d="M318.155 184.657C318.934 188.53 314.839 193.344 310.653 197.249C302.786 204.586 286.424 204.256 283.648 202.679C280.872 201.103 278.683 197.204 276.688 192.996C275.355 190.186 274.161 185.443 274.161 185.443L269.895 174.211C268.668 171.435 265.978 163.603 262.565 154.617C261.482 153.223 260.717 150.196 260.779 148.84C260.906 147.807 261.738 145.624 264.053 145.159C266.367 144.693 267.978 146.384 268.495 147.288L276.053 164.912L268.096 140.315C267.901 139.347 268.489 136.348 271.575 135.727C274.646 135.11 276.115 137.001 276.574 137.592L276.581 137.601L284.733 163.166L276.572 132.565C276.377 131.597 276.588 128.848 279.674 128.228C281.833 126.988 284.35 129.658 285.252 130.82L293.413 161.421L294.378 161.227C294.378 161.227 289.343 136.805 289.329 136.426C289.314 136.048 287.908 134.044 292.261 132.433C293.913 131.822 296.111 132.166 297.03 134.497C297.949 136.828 302.997 168.158 304.236 170.327C305.474 172.496 306.301 175.709 308.044 173.757C309.786 171.806 310.393 161.029 310.393 161.029L312.251 155.299C312.251 155.299 315.922 151.892 319.259 155.215C322.596 158.538 317.376 180.783 318.155 184.657Z" fill="url(#paint0_linear_1_2)" stroke="white" stroke-width="2"/>
<path d="M204.234 223.057C203.874 227.344 208.903 232.041 213.916 235.743C223.338 242.7 240.995 240.307 243.801 238.256C246.608 236.206 248.489 231.716 250.124 226.916C251.216 223.711 251.917 218.433 251.917 218.433L255.133 205.753C256.115 202.597 258.05 193.792 260.623 183.648C261.621 182.005 262.071 178.635 261.836 177.177C261.57 176.075 260.398 173.818 257.837 173.603C255.275 173.387 253.743 175.417 253.297 176.459L247.316 196.461L252.861 168.867C252.951 167.795 251.942 164.625 248.526 164.337C245.128 164.052 243.774 166.28 243.351 166.977L243.345 166.988L237.71 195.653L242.728 161.54C242.818 160.468 242.249 157.521 238.833 157.234C236.344 156.161 233.954 159.363 233.122 160.732L228.104 194.846L227.037 194.756C227.037 194.756 229.443 167.714 229.411 167.303C229.38 166.893 230.651 164.549 225.742 163.349C223.879 162.894 221.545 163.539 220.841 166.175C220.137 168.81 218.577 203.326 217.507 205.826C216.437 208.327 215.942 211.904 213.815 210.01C211.687 208.116 209.689 196.535 209.689 196.535L206.966 190.569C206.966 190.569 202.572 187.341 199.376 191.351C196.181 195.36 204.595 218.771 204.234 223.057Z" fill="url(#paint1_linear_1_2)" stroke="white" stroke-width="2"/>
<rect x="128.906" y="131.429" width="22.2952" height="4.16607" rx="2.08304" transform="rotate(23.2782 128.906 131.429)" fill="url(#paint2_linear_1_2)"/>
<rect x="128.906" y="131.429" width="22.2952" height="4.16607" rx="2.08304" transform="rotate(23.2782 128.906 131.429)" fill="url(#paint3_linear_1_2)"/>
<rect x="152.205" y="95.7635" width="22.2952" height="4.16607" rx="2.08304" transform="rotate(41.2782 152.205 95.7635)" fill="url(#paint4_linear_1_2)"/>
<rect x="152.205" y="95.7635" width="22.2952" height="4.16607" rx="2.08304" transform="rotate(41.2782 152.205 95.7635)" fill="url(#paint5_linear_1_2)"/>
<rect x="185.385" y="69.0431" width="22.2952" height="4.16607" rx="2.08304" transform="rotate(59.2782 185.385 69.0431)" fill="url(#paint6_linear_1_2)"/>
<rect x="185.385" y="69.0431" width="22.2952" height="4.16607" rx="2.08304" transform="rotate(59.2782 185.385 69.0431)" fill="url(#paint7_linear_1_2)"/>
<rect x="225.197" y="53.8836" width="22.2952" height="4.16607" rx="2.08304" transform="rotate(77.2782 225.197 53.8836)" fill="url(#paint8_linear_1_2)"/>
<rect x="225.197" y="53.8836" width="22.2952" height="4.16607" rx="2.08304" transform="rotate(77.2782 225.197 53.8836)" fill="url(#paint9_linear_1_2)"/>
<rect x="267.746" y="51.7689" width="22.2952" height="4.16607" rx="2.08304" transform="rotate(95.2782 267.746 51.7689)" fill="url(#paint10_linear_1_2)"/>
<rect x="267.746" y="51.7689" width="22.2952" height="4.16607" rx="2.08304" transform="rotate(95.2782 267.746 51.7689)" fill="url(#paint11_linear_1_2)"/>
<rect x="308.866" y="62.906" width="22.2952" height="4.16607" rx="2.08304" transform="rotate(113.278 308.866 62.906)" fill="url(#paint12_linear_1_2)"/>
<rect x="308.866" y="62.906" width="22.2952" height="4.16607" rx="2.08304" transform="rotate(113.278 308.866 62.906)" fill="url(#paint13_linear_1_2)"/>
<rect x="344.532" y="86.2048" width="22.2952" height="4.16607" rx="2.08304" transform="rotate(131.278 344.532 86.2048)" fill="url(#paint14_linear_1_2)"/>
<rect x="344.532" y="86.2048" width="22.2952" height="4.16607" rx="2.08304" transform="rotate(131.278 344.532 86.2048)" fill="url(#paint15_linear_1_2)"/>
<rect x="371.252" y="119.385" width="22.2952" height="4.16607" rx="2.08304" transform="rotate(149.278 371.252 119.385)" fill="url(#paint16_linear_1_2)"/>
<rect x="371.252" y="119.385" width="22.2952" height="4.16607" rx="2.08304" transform="rotate(149.278 371.252 119.385)" fill="url(#paint17_linear_1_2)"/>
<rect x="386.412" y="159.197" width="22.2952" height="4.16607" rx="2.08304" transform="rotate(167.278 386.412 159.197)" fill="url(#paint18_linear_1_2)"/>
<rect x="386.412" y="159.197" width="22.2952" height="4.16607" rx="2.08304" transform="rotate(167.278 386.412 159.197)" fill="url(#paint19_linear_1_2)"/>
<rect x="388.526" y="201.746" width="22.2952" height="4.16607" rx="2.08304" transform="rotate(-174.722 388.526 201.746)" fill="url(#paint20_linear_1_2)"/>
<rect x="388.526" y="201.746" width="22.2952" height="4.16607" rx="2.08304" transform="rotate(-174.722 388.526 201.746)" fill="url(#paint21_linear_1_2)"/>
<rect x="377.389" y="242.866" width="22.2952" height="4.16607" rx="2.08304" transform="rotate(-156.722 377.389 242.866)" fill="url(#paint22_linear_1_2)"/>
<rect x="377.389" y="242.866" width="22.2952" height="4.16607" rx="2.08304" transform="rotate(-156.722 377.389 242.866)" fill="url(#paint23_linear_1_2)"/>
<rect x="354.09" y="278.532" width="22.2952" height="4.16607" rx="2.08304" transform="rotate(-138.722 354.09 278.532)" fill="url(#paint24_linear_1_2)"/>
<rect x="354.09" y="278.532" width="22.2952" height="4.16607" rx="2.08304" transform="rotate(-138.722 354.09 278.532)" fill="url(#paint25_linear_1_2)"/>
<rect x="320.911" y="305.252" width="22.2952" height="4.16607" rx="2.08304" transform="rotate(-120.722 320.911 305.252)" fill="url(#paint26_linear_1_2)"/>
<rect x="320.911" y="305.252" width="22.2952" height="4.16607" rx="2.08304" transform="rotate(-120.722 320.911 305.252)" fill="url(#paint27_linear_1_2)"/>
<rect x="281.098" y="320.412" width="22.2952" height="4.16607" rx="2.08304" transform="rotate(-102.722 281.098 320.412)" fill="url(#paint28_linear_1_2)"/>
<rect x="281.098" y="320.412" width="22.2952" height="4.16607" rx="2.08304" transform="rotate(-102.722 281.098 320.412)" fill="url(#paint29_linear_1_2)"/>
<rect x="238.549" y="322.526" width="22.2952" height="4.16607" rx="2.08304" transform="rotate(-84.7218 238.549 322.526)" fill="url(#paint30_linear_1_2)"/>
<rect x="238.549" y="322.526" width="22.2952" height="4.16607" rx="2.08304" transform="rotate(-84.7218 238.549 322.526)" fill="url(#paint31_linear_1_2)"/>
<rect x="197.429" y="311.389" width="22.2952" height="4.16607" rx="2.08304" transform="rotate(-66.7218 197.429 311.389)" fill="url(#paint32_linear_1_2)"/>
<rect x="197.429" y="311.389" width="22.2952" height="4.16607" rx="2.08304" transform="rotate(-66.7218 197.429 311.389)" fill="url(#paint33_linear_1_2)"/>
<rect x="161.763" y="288.09" width="22.2952" height="4.16607" rx="2.08304" transform="rotate(-48.7218 161.763 288.09)" fill="url(#paint34_linear_1_2)"/>
<rect x="161.763" y="288.09" width="22.2952" height="4.16607" rx="2.08304" transform="rotate(-48.7218 161.763 288.09)" fill="url(#paint35_linear_1_2)"/>
<rect x="135.043" y="254.911" width="22.2952" height="4.16607" rx="2.08304" transform="rotate(-30.7218 135.043 254.911)" fill="url(#paint36_linear_1_2)"/>
<rect x="135.043" y="254.911" width="22.2952" height="4.16607" rx="2.08304" transform="rotate(-30.7218 135.043 254.911)" fill="url(#paint37_linear_1_2)"/>
<rect x="119.884" y="215.098" width="22.2952" height="4.16607" rx="2.08304" transform="rotate(-12.7218 119.884 215.098)" fill="url(#paint38_linear_1_2)"/>
<rect x="119.884" y="215.098" width="22.2952" height="4.16607" rx="2.08304" transform="rotate(-12.7218 119.884 215.098)" fill="url(#paint39_linear_1_2)"/>
<rect x="117.769" y="172.549" width="22.2952" height="4.16607" rx="2.08304" transform="rotate(5.27819 117.769 172.549)" fill="url(#paint40_linear_1_2)"/>
<rect x="117.769" y="172.549" width="22.2952" height="4.16607" rx="2.08304" transform="rotate(5.27819 117.769 172.549)" fill="url(#paint41_linear_1_2)"/>
<rect x="161.619" y="160.594" width="15.9901" height="2.98791" rx="1.49395" transform="rotate(12.2267 161.619 160.594)" fill="url(#paint42_linear_1_2)"/>
<rect x="161.619" y="160.594" width="15.9901" height="2.98791" rx="1.49395" transform="rotate(12.2267 161.619 160.594)" fill="url(#paint43_linear_1_2)"/>
<rect x="173.116" y="132.286" width="15.9901" height="2.98791" rx="1.49395" transform="rotate(30.2267 173.116 132.286)" fill="url(#paint44_linear_1_2)"/>
<rect x="173.116" y="132.286" width="15.9901" height="2.98791" rx="1.49395" transform="rotate(30.2267 173.116 132.286)" fill="url(#paint45_linear_1_2)"/>
<rect x="192.798" y="108.915" width="15.9901" height="2.98791" rx="1.49395" transform="rotate(48.2267 192.798 108.915)" fill="url(#paint46_linear_1_2)"/>
<rect x="192.798" y="108.915" width="15.9901" height="2.98791" rx="1.49395" transform="rotate(48.2267 192.798 108.915)" fill="url(#paint47_linear_1_2)"/>
<rect x="218.738" y="92.7712" width="15.9901" height="2.98791" rx="1.49395" transform="rotate(66.2267 218.738 92.7712)" fill="url(#paint48_linear_1_2)"/>
<rect x="218.738" y="92.7712" width="15.9901" height="2.98791" rx="1.49395" transform="rotate(66.2267 218.738 92.7712)" fill="url(#paint49_linear_1_2)"/>
<rect x="248.397" y="85.433" width="15.9901" height="2.98791" rx="1.49395" transform="rotate(84.2267 248.397 85.433)" fill="url(#paint50_linear_1_2)"/>
<rect x="248.397" y="85.433" width="15.9901" height="2.98791" rx="1.49395" transform="rotate(84.2267 248.397 85.433)" fill="url(#paint51_linear_1_2)"/>
<rect x="278.872" y="87.6192" width="15.9901" height="2.98791" rx="1.49395" transform="rotate(102.227 278.872 87.6192)" fill="url(#paint52_linear_1_2)"/>
<rect x="278.872" y="87.6192" width="15.9901" height="2.98791" rx="1.49395" transform="rotate(102.227 278.872 87.6192)" fill="url(#paint53_linear_1_2)"/>
<rect x="307.181" y="99.1159" width="15.9901" height="2.98791" rx="1.49395" transform="rotate(120.227 307.181 99.1159)" fill="url(#paint54_linear_1_2)"/>
<rect x="307.181" y="99.1159" width="15.9901" height="2.98791" rx="1.49395" transform="rotate(120.227 307.181 99.1159)" fill="url(#paint55_linear_1_2)"/>
<rect x="330.551" y="118.797" width="15.9901" height="2.98791" rx="1.49395" transform="rotate(138.227 330.551 118.797)" fill="url(#paint56_linear_1_2)"/>
<rect x="330.551" y="118.797" width="15.9901" height="2.98791" rx="1.49395" transform="rotate(138.227 330.551 118.797)" fill="url(#paint57_linear_1_2)"/>
<rect x="346.695" y="144.738" width="15.9901" height="2.98791" rx="1.49395" transform="rotate(156.227 346.695 144.738)" fill="url(#paint58_linear_1_2)"/>
<rect x="346.695" y="144.738" width="15.9901" height="2.98791" rx="1.49395" transform="rotate(156.227 346.695 144.738)" fill="url(#paint59_linear_1_2)"/>
<rect x="354.033" y="174.397" width="15.9901" height="2.98791" rx="1.49395" transform="rotate(174.227 354.033 174.397)" fill="url(#paint60_linear_1_2)"/>
<rect x="354.033" y="174.397" width="15.9901" height="2.98791" rx="1.49395" transform="rotate(174.227 354.033 174.397)" fill="url(#paint61_linear_1_2)"/>
<rect x="351.847" y="204.872" width="15.9901" height="2.98791" rx="1.49395" transform="rotate(-167.773 351.847 204.872)" fill="url(#paint62_linear_1_2)"/>
<rect x="351.847" y="204.872" width="15.9901" height="2.98791" rx="1.49395" transform="rotate(-167.773 351.847 204.872)" fill="url(#paint63_linear_1_2)"/>
<rect x="340.35" y="233.181" width="15.9901" height="2.98791" rx="1.49395" transform="rotate(-149.773 340.35 233.181)" fill="url(#paint64_linear_1_2)"/>
<rect x="340.35" y="233.181" width="15.9901" height="2.98791" rx="1.49395" transform="rotate(-149.773 340.35 233.181)" fill="url(#paint65_linear_1_2)"/>
<rect x="320.669" y="256.551" width="15.9901" height="2.98791" rx="1.49395" transform="rotate(-131.773 320.669 256.551)" fill="url(#paint66_linear_1_2)"/>
<rect x="320.669" y="256.551" width="15.9901" height="2.98791" rx="1.49395" transform="rotate(-131.773 320.669 256.551)" fill="url(#paint67_linear_1_2)"/>
<rect x="294.729" y="272.695" width="15.9901" height="2.98791" rx="1.49395" transform="rotate(-113.773 294.729 272.695)" fill="url(#paint68_linear_1_2)"/>
<rect x="294.729" y="272.695" width="15.9901" height="2.98791" rx="1.49395" transform="rotate(-113.773 294.729 272.695)" fill="url(#paint69_linear_1_2)"/>
<rect x="265.069" y="280.033" width="15.9901" height="2.98791" rx="1.49395" transform="rotate(-95.7733 265.069 280.033)" fill="url(#paint70_linear_1_2)"/>
<rect x="265.069" y="280.033" width="15.9901" height="2.98791" rx="1.49395" transform="rotate(-95.7733 265.069 280.033)" fill="url(#paint71_linear_1_2)"/>
<rect x="234.594" y="277.847" width="15.9901" height="2.98791" rx="1.49395" transform="rotate(-77.7733 234.594 277.847)" fill="url(#paint72_linear_1_2)"/>
<rect x="234.594" y="277.847" width="15.9901" height="2.98791" rx="1.49395" transform="rotate(-77.7733 234.594 277.847)" fill="url(#paint73_linear_1_2)"/>
<rect x="206.286" y="266.35" width="15.9901" height="2.98791" rx="1.49395" transform="rotate(-59.7733 206.286 266.35)" fill="url(#paint74_linear_1_2)"/>
<rect x="206.286" y="266.35" width="15.9901" height="2.98791" rx="1.49395" transform="rotate(-59.7733 206.286 266.35)" fill="url(#paint75_linear_1_2)"/>
<rect x="182.915" y="246.669" width="15.9901" height="2.98791" rx="1.49395" transform="rotate(-41.7733 182.915 246.669)" fill="url(#paint76_linear_1_2)"/>
<rect x="182.915" y="246.669" width="15.9901" height="2.98791" rx="1.49395" transform="rotate(-41.7733 182.915 246.669)" fill="url(#paint77_linear_1_2)"/>
<rect x="166.771" y="220.729" width="15.9901" height="2.98791" rx="1.49395" transform="rotate(-23.7733 166.771 220.729)" fill="url(#paint78_linear_1_2)"/>
<rect x="166.771" y="220.729" width="15.9901" height="2.98791" rx="1.49395" transform="rotate(-23.7733 166.771 220.729)" fill="url(#paint79_linear_1_2)"/>
<rect x="159.433" y="191.069" width="15.9901" height="2.98791" rx="1.49395" transform="rotate(-5.77334 159.433 191.069)" fill="url(#paint80_linear_1_2)"/>
<rect x="159.433" y="191.069" width="15.9901" height="2.98791" rx="1.49395" transform="rotate(-5.77334 159.433 191.069)" fill="url(#paint81_linear_1_2)"/>
<path d="M472.5 284C454.5 286.4 439.833 276 435 273C445.833 271.5 455 273.5 466 273C467.998 272.909 488.167 268.167 496.5 266C495.5 270.667 490.5 281.6 472.5 284Z" fill="black" fill-opacity="0.42"/>
<path d="M430 196C432.167 193.833 437 189.9 439 191.5" stroke="black"/>
<path d="M472 195.873C469.833 193.706 465 189.773 463 191.373" stroke="black"/>
<path d="M82.3119 362.101C64.3047 359.756 52.8333 345.911 48.9422 341.761C59.7943 343.119 68.1298 347.426 78.8837 349.793C80.837 350.223 101.546 350.867 110.156 350.934C107.981 355.182 100.319 364.446 82.3119 362.101Z" fill="black" fill-opacity="0.42"/>
<path d="M447.5 214C445.9 224.8 443.167 231.5 442 233.5C443.167 233.333 445.6 233.3 446 234.5" stroke="black"/>
<path d="M113.5 286C116.3 285.2 140 273.5 149 269.5" stroke="black" stroke-width="3"/>
<path d="M453 287L473 293L486 282L481 307L489 318C489 334.4 503.5 367.5 521 382.5C521 382.5 522 383.5 523.5 384.5C525 385.5 529.5 390 529.5 390C528.833 390.167 528.2 391.3 521 394.5C495 390.1 477.167 345 471.5 323L473 309.308L453 287Z" fill="black" fill-opacity="0.43"/>
<path d="M455 284.5L475 290.5L488 279.5L483 304.5L491 315.5C491 331.9 505.5 365 523 380C523 380 524 381 525.5 382C527 383 531.5 387.5 531.5 387.5C530.833 387.667 530.2 388.8 523 392C497 387.6 479.167 342.5 473.5 320.5L475 306.808L455 284.5Z" fill="#CF0D3A"/>
</g>
<defs>
<linearGradient id="paint0_linear_1_2" x1="285.136" y1="127" x2="300.305" y2="202.431" gradientUnits="userSpaceOnUse">
<stop stop-color="#0F47B8"/>
<stop offset="1" stop-color="#477CE7"/>
</linearGradient>
<linearGradient id="paint1_linear_1_2" x1="232.773" y1="156.586" x2="225.754" y2="240.06" gradientUnits="userSpaceOnUse">
<stop stop-color="#D5214B"/>
<stop offset="1" stop-color="#EC5578"/>
</linearGradient>
<linearGradient id="paint2_linear_1_2" x1="147.779" y1="132.997" x2="147.825" y2="132.268" gradientUnits="userSpaceOnUse">
<stop stop-color="#D5214B"/>
<stop offset="1" stop-color="#0F47B8"/>
</linearGradient>
<linearGradient id="paint3_linear_1_2" x1="140.054" y1="131.429" x2="140.054" y2="135.595" gradientUnits="userSpaceOnUse">
<stop stop-color="#0F47B8"/>
<stop offset="1" stop-color="#477CE7"/>
</linearGradient>
<linearGradient id="paint4_linear_1_2" x1="171.078" y1="97.3317" x2="171.124" y2="96.6019" gradientUnits="userSpaceOnUse">
<stop stop-color="#D5214B"/>
<stop offset="1" stop-color="#0F47B8"/>
</linearGradient>
<linearGradient id="paint5_linear_1_2" x1="163.352" y1="95.7635" x2="163.352" y2="99.9295" gradientUnits="userSpaceOnUse">
<stop stop-color="#0F47B8"/>
<stop offset="1" stop-color="#477CE7"/>
</linearGradient>
<linearGradient id="paint6_linear_1_2" x1="204.258" y1="70.6113" x2="204.304" y2="69.8815" gradientUnits="userSpaceOnUse">
<stop stop-color="#D5214B"/>
<stop offset="1" stop-color="#0F47B8"/>
</linearGradient>
<linearGradient id="paint7_linear_1_2" x1="196.532" y1="69.0431" x2="196.532" y2="73.2092" gradientUnits="userSpaceOnUse">
<stop stop-color="#0F47B8"/>
<stop offset="1" stop-color="#477CE7"/>
</linearGradient>
<linearGradient id="paint8_linear_1_2" x1="244.07" y1="55.4518" x2="244.116" y2="54.722" gradientUnits="userSpaceOnUse">
<stop stop-color="#D5214B"/>
<stop offset="1" stop-color="#0F47B8"/>
</linearGradient>
<linearGradient id="paint9_linear_1_2" x1="236.345" y1="53.8836" x2="236.345" y2="58.0497" gradientUnits="userSpaceOnUse">
<stop stop-color="#D5214B"/>
<stop offset="1" stop-color="#EC5578"/>
</linearGradient>
<linearGradient id="paint10_linear_1_2" x1="286.619" y1="53.3372" x2="286.665" y2="52.6073" gradientUnits="userSpaceOnUse">
<stop stop-color="#D5214B"/>
<stop offset="1" stop-color="#0F47B8"/>
</linearGradient>
<linearGradient id="paint11_linear_1_2" x1="278.894" y1="51.7689" x2="278.894" y2="55.935" gradientUnits="userSpaceOnUse">
<stop stop-color="#D5214B"/>
<stop offset="1" stop-color="#EC5578"/>
</linearGradient>
<linearGradient id="paint12_linear_1_2" x1="327.739" y1="64.4743" x2="327.785" y2="63.7445" gradientUnits="userSpaceOnUse">
<stop stop-color="#D5214B"/>
<stop offset="1" stop-color="#0F47B8"/>
</linearGradient>
<linearGradient id="paint13_linear_1_2" x1="320.014" y1="62.906" x2="320.014" y2="67.0721" gradientUnits="userSpaceOnUse">
<stop stop-color="#D5214B"/>
<stop offset="1" stop-color="#EC5578"/>
</linearGradient>
<linearGradient id="paint14_linear_1_2" x1="363.405" y1="87.773" x2="363.451" y2="87.0432" gradientUnits="userSpaceOnUse">
<stop stop-color="#D5214B"/>
<stop offset="1" stop-color="#0F47B8"/>
</linearGradient>
<linearGradient id="paint15_linear_1_2" x1="355.679" y1="86.2048" x2="355.679" y2="90.3709" gradientUnits="userSpaceOnUse">
<stop stop-color="#D5214B"/>
<stop offset="1" stop-color="#EC5578"/>
</linearGradient>
<linearGradient id="paint16_linear_1_2" x1="390.125" y1="120.953" x2="390.171" y2="120.223" gradientUnits="userSpaceOnUse">
<stop stop-color="#D5214B"/>
<stop offset="1" stop-color="#0F47B8"/>
</linearGradient>
<linearGradient id="paint17_linear_1_2" x1="382.4" y1="119.385" x2="382.4" y2="123.551" gradientUnits="userSpaceOnUse">
<stop stop-color="#D5214B"/>
<stop offset="1" stop-color="#EC5578"/>
</linearGradient>
<linearGradient id="paint18_linear_1_2" x1="405.285" y1="160.766" x2="405.331" y2="160.036" gradientUnits="userSpaceOnUse">
<stop stop-color="#D5214B"/>
<stop offset="1" stop-color="#0F47B8"/>
</linearGradient>
<linearGradient id="paint19_linear_1_2" x1="397.559" y1="159.197" x2="397.559" y2="163.363" gradientUnits="userSpaceOnUse">
<stop stop-color="#D5214B"/>
<stop offset="1" stop-color="#EC5578"/>
</linearGradient>
<linearGradient id="paint20_linear_1_2" x1="407.399" y1="203.314" x2="407.445" y2="202.585" gradientUnits="userSpaceOnUse">
<stop stop-color="#D5214B"/>
<stop offset="1" stop-color="#0F47B8"/>
</linearGradient>
<linearGradient id="paint21_linear_1_2" x1="399.674" y1="201.746" x2="399.674" y2="205.912" gradientUnits="userSpaceOnUse">
<stop stop-color="#D5214B"/>
<stop offset="1" stop-color="#EC5578"/>
</linearGradient>
<linearGradient id="paint22_linear_1_2" x1="396.262" y1="244.434" x2="396.308" y2="243.704" gradientUnits="userSpaceOnUse">
<stop stop-color="#D5214B"/>
<stop offset="1" stop-color="#0F47B8"/>
</linearGradient>
<linearGradient id="paint23_linear_1_2" x1="388.537" y1="242.866" x2="388.537" y2="247.032" gradientUnits="userSpaceOnUse">
<stop stop-color="#D5214B"/>
<stop offset="1" stop-color="#EC5578"/>
</linearGradient>
<linearGradient id="paint24_linear_1_2" x1="372.963" y1="280.1" x2="373.009" y2="279.37" gradientUnits="userSpaceOnUse">
<stop stop-color="#D5214B"/>
<stop offset="1" stop-color="#0F47B8"/>
</linearGradient>
<linearGradient id="paint25_linear_1_2" x1="365.238" y1="278.532" x2="365.238" y2="282.698" gradientUnits="userSpaceOnUse">
<stop stop-color="#D5214B"/>
<stop offset="1" stop-color="#EC5578"/>
</linearGradient>
<linearGradient id="paint26_linear_1_2" x1="339.784" y1="306.82" x2="339.83" y2="306.091" gradientUnits="userSpaceOnUse">
<stop stop-color="#D5214B"/>
<stop offset="1" stop-color="#0F47B8"/>
</linearGradient>
<linearGradient id="paint27_linear_1_2" x1="332.058" y1="305.252" x2="332.058" y2="309.418" gradientUnits="userSpaceOnUse">
<stop stop-color="#D5214B"/>
<stop offset="1" stop-color="#EC5578"/>
</linearGradient>
<linearGradient id="paint28_linear_1_2" x1="299.971" y1="321.98" x2="300.017" y2="321.25" gradientUnits="userSpaceOnUse">
<stop stop-color="#D5214B"/>
<stop offset="1" stop-color="#0F47B8"/>
</linearGradient>
<linearGradient id="paint29_linear_1_2" x1="292.245" y1="320.412" x2="292.245" y2="324.578" gradientUnits="userSpaceOnUse">
<stop stop-color="#0F47B8"/>
<stop offset="1" stop-color="#477CE7"/>
</linearGradient>
<linearGradient id="paint30_linear_1_2" x1="257.422" y1="324.094" x2="257.468" y2="323.365" gradientUnits="userSpaceOnUse">
<stop stop-color="#D5214B"/>
<stop offset="1" stop-color="#0F47B8"/>
</linearGradient>
<linearGradient id="paint31_linear_1_2" x1="249.697" y1="322.526" x2="249.697" y2="326.692" gradientUnits="userSpaceOnUse">
<stop stop-color="#0F47B8"/>
<stop offset="1" stop-color="#477CE7"/>
</linearGradient>
<linearGradient id="paint32_linear_1_2" x1="216.302" y1="312.957" x2="216.348" y2="312.228" gradientUnits="userSpaceOnUse">
<stop stop-color="#D5214B"/>
<stop offset="1" stop-color="#0F47B8"/>
</linearGradient>
<linearGradient id="paint33_linear_1_2" x1="208.577" y1="311.389" x2="208.577" y2="315.555" gradientUnits="userSpaceOnUse">
<stop stop-color="#0F47B8"/>
<stop offset="1" stop-color="#477CE7"/>
</linearGradient>
<linearGradient id="paint34_linear_1_2" x1="180.636" y1="289.659" x2="180.682" y2="288.929" gradientUnits="userSpaceOnUse">
<stop stop-color="#D5214B"/>
<stop offset="1" stop-color="#0F47B8"/>
</linearGradient>
<linearGradient id="paint35_linear_1_2" x1="172.911" y1="288.09" x2="172.911" y2="292.256" gradientUnits="userSpaceOnUse">
<stop stop-color="#0F47B8"/>
<stop offset="1" stop-color="#477CE7"/>
</linearGradient>
<linearGradient id="paint36_linear_1_2" x1="153.916" y1="256.479" x2="153.962" y2="255.749" gradientUnits="userSpaceOnUse">
<stop stop-color="#D5214B"/>
<stop offset="1" stop-color="#0F47B8"/>
</linearGradient>
<linearGradient id="paint37_linear_1_2" x1="146.191" y1="254.911" x2="146.191" y2="259.077" gradientUnits="userSpaceOnUse">
<stop stop-color="#0F47B8"/>
<stop offset="1" stop-color="#477CE7"/>
</linearGradient>
<linearGradient id="paint38_linear_1_2" x1="138.757" y1="216.666" x2="138.803" y2="215.936" gradientUnits="userSpaceOnUse">
<stop stop-color="#D5214B"/>
<stop offset="1" stop-color="#0F47B8"/>
</linearGradient>
<linearGradient id="paint39_linear_1_2" x1="131.031" y1="215.098" x2="131.031" y2="219.264" gradientUnits="userSpaceOnUse">
<stop stop-color="#0F47B8"/>
<stop offset="1" stop-color="#477CE7"/>
</linearGradient>
<linearGradient id="paint40_linear_1_2" x1="128.917" y1="172.549" x2="128.917" y2="176.715" gradientUnits="userSpaceOnUse">
<stop stop-color="#D5214B"/>
<stop offset="1" stop-color="#EC5578"/>
</linearGradient>
<linearGradient id="paint41_linear_1_2" x1="128.917" y1="172.549" x2="128.917" y2="176.715" gradientUnits="userSpaceOnUse">
<stop stop-color="#0F47B8"/>
<stop offset="1" stop-color="#477CE7"/>
</linearGradient>
<linearGradient id="paint42_linear_1_2" x1="175.155" y1="161.718" x2="175.188" y2="161.195" gradientUnits="userSpaceOnUse">
<stop stop-color="#D5214B"/>
<stop offset="1" stop-color="#0F47B8"/>
</linearGradient>
<linearGradient id="paint43_linear_1_2" x1="169.614" y1="160.594" x2="169.614" y2="163.582" gradientUnits="userSpaceOnUse">
<stop stop-color="#0F47B8"/>
<stop offset="1" stop-color="#477CE7"/>
</linearGradient>
<linearGradient id="paint44_linear_1_2" x1="186.652" y1="133.41" x2="186.685" y2="132.887" gradientUnits="userSpaceOnUse">
<stop stop-color="#D5214B"/>
<stop offset="1" stop-color="#0F47B8"/>
</linearGradient>
<linearGradient id="paint45_linear_1_2" x1="181.111" y1="132.286" x2="181.111" y2="135.273" gradientUnits="userSpaceOnUse">
<stop stop-color="#0F47B8"/>
<stop offset="1" stop-color="#477CE7"/>
</linearGradient>
<linearGradient id="paint46_linear_1_2" x1="206.333" y1="110.04" x2="206.366" y2="109.517" gradientUnits="userSpaceOnUse">
<stop stop-color="#D5214B"/>
<stop offset="1" stop-color="#0F47B8"/>
</linearGradient>
<linearGradient id="paint47_linear_1_2" x1="200.793" y1="108.915" x2="200.793" y2="111.903" gradientUnits="userSpaceOnUse">
<stop stop-color="#0F47B8"/>
<stop offset="1" stop-color="#477CE7"/>
</linearGradient>
<linearGradient id="paint48_linear_1_2" x1="232.273" y1="93.8959" x2="232.306" y2="93.3725" gradientUnits="userSpaceOnUse">
<stop stop-color="#D5214B"/>
<stop offset="1" stop-color="#0F47B8"/>
</linearGradient>
<linearGradient id="paint49_linear_1_2" x1="226.733" y1="92.7712" x2="226.733" y2="95.7591" gradientUnits="userSpaceOnUse">
<stop stop-color="#D5214B"/>
<stop offset="1" stop-color="#EC5578"/>
</linearGradient>
<linearGradient id="paint50_linear_1_2" x1="261.933" y1="86.5577" x2="261.966" y2="86.0343" gradientUnits="userSpaceOnUse">
<stop stop-color="#D5214B"/>
<stop offset="1" stop-color="#0F47B8"/>
</linearGradient>
<linearGradient id="paint51_linear_1_2" x1="256.392" y1="85.433" x2="256.392" y2="88.4209" gradientUnits="userSpaceOnUse">
<stop stop-color="#D5214B"/>
<stop offset="1" stop-color="#EC5578"/>
</linearGradient>
<linearGradient id="paint52_linear_1_2" x1="292.408" y1="88.744" x2="292.441" y2="88.2205" gradientUnits="userSpaceOnUse">
<stop stop-color="#D5214B"/>
<stop offset="1" stop-color="#0F47B8"/>
</linearGradient>
<linearGradient id="paint53_linear_1_2" x1="286.867" y1="87.6192" x2="286.867" y2="90.6071" gradientUnits="userSpaceOnUse">
<stop stop-color="#D5214B"/>
<stop offset="1" stop-color="#EC5578"/>
</linearGradient>
<linearGradient id="paint54_linear_1_2" x1="320.716" y1="100.241" x2="320.749" y2="99.7172" gradientUnits="userSpaceOnUse">
<stop stop-color="#D5214B"/>
<stop offset="1" stop-color="#0F47B8"/>
</linearGradient>
<linearGradient id="paint55_linear_1_2" x1="315.176" y1="99.1159" x2="315.176" y2="102.104" gradientUnits="userSpaceOnUse">
<stop stop-color="#D5214B"/>
<stop offset="1" stop-color="#EC5578"/>
</linearGradient>
<linearGradient id="paint56_linear_1_2" x1="344.086" y1="119.922" x2="344.119" y2="119.399" gradientUnits="userSpaceOnUse">
<stop stop-color="#D5214B"/>
<stop offset="1" stop-color="#0F47B8"/>
</linearGradient>
<linearGradient id="paint57_linear_1_2" x1="338.546" y1="118.797" x2="338.546" y2="121.785" gradientUnits="userSpaceOnUse">
<stop stop-color="#D5214B"/>
<stop offset="1" stop-color="#EC5578"/>
</linearGradient>
<linearGradient id="paint58_linear_1_2" x1="360.231" y1="145.862" x2="360.264" y2="145.339" gradientUnits="userSpaceOnUse">
<stop stop-color="#D5214B"/>
<stop offset="1" stop-color="#0F47B8"/>
</linearGradient>
<linearGradient id="paint59_linear_1_2" x1="354.69" y1="144.738" x2="354.69" y2="147.726" gradientUnits="userSpaceOnUse">
<stop stop-color="#D5214B"/>
<stop offset="1" stop-color="#EC5578"/>
</linearGradient>
<linearGradient id="paint60_linear_1_2" x1="367.569" y1="175.522" x2="367.602" y2="174.998" gradientUnits="userSpaceOnUse">
<stop stop-color="#D5214B"/>
<stop offset="1" stop-color="#0F47B8"/>
</linearGradient>
<linearGradient id="paint61_linear_1_2" x1="362.028" y1="174.397" x2="362.028" y2="177.385" gradientUnits="userSpaceOnUse">
<stop stop-color="#D5214B"/>
<stop offset="1" stop-color="#EC5578"/>
</linearGradient>
<linearGradient id="paint62_linear_1_2" x1="365.383" y1="205.997" x2="365.416" y2="205.474" gradientUnits="userSpaceOnUse">
<stop stop-color="#D5214B"/>
<stop offset="1" stop-color="#0F47B8"/>
</linearGradient>
<linearGradient id="paint63_linear_1_2" x1="359.842" y1="204.872" x2="359.842" y2="207.86" gradientUnits="userSpaceOnUse">
<stop stop-color="#D5214B"/>
<stop offset="1" stop-color="#EC5578"/>
</linearGradient>
<linearGradient id="paint64_linear_1_2" x1="353.886" y1="234.305" x2="353.919" y2="233.782" gradientUnits="userSpaceOnUse">
<stop stop-color="#D5214B"/>
<stop offset="1" stop-color="#0F47B8"/>
</linearGradient>
<linearGradient id="paint65_linear_1_2" x1="348.345" y1="233.181" x2="348.345" y2="236.168" gradientUnits="userSpaceOnUse">
<stop stop-color="#D5214B"/>
<stop offset="1" stop-color="#EC5578"/>
</linearGradient>
<linearGradient id="paint66_linear_1_2" x1="334.204" y1="257.675" x2="334.237" y2="257.152" gradientUnits="userSpaceOnUse">
<stop stop-color="#D5214B"/>
<stop offset="1" stop-color="#0F47B8"/>
</linearGradient>
<linearGradient id="paint67_linear_1_2" x1="328.664" y1="256.551" x2="328.664" y2="259.539" gradientUnits="userSpaceOnUse">
<stop stop-color="#D5214B"/>
<stop offset="1" stop-color="#EC5578"/>
</linearGradient>
<linearGradient id="paint68_linear_1_2" x1="308.264" y1="273.82" x2="308.297" y2="273.296" gradientUnits="userSpaceOnUse">
<stop stop-color="#D5214B"/>
<stop offset="1" stop-color="#0F47B8"/>
</linearGradient>
<linearGradient id="paint69_linear_1_2" x1="302.724" y1="272.695" x2="302.724" y2="275.683" gradientUnits="userSpaceOnUse">
<stop stop-color="#0F47B8"/>
<stop offset="1" stop-color="#477CE7"/>
</linearGradient>
<linearGradient id="paint70_linear_1_2" x1="278.605" y1="281.158" x2="278.638" y2="280.634" gradientUnits="userSpaceOnUse">
<stop stop-color="#D5214B"/>
<stop offset="1" stop-color="#0F47B8"/>
</linearGradient>
<linearGradient id="paint71_linear_1_2" x1="273.064" y1="280.033" x2="273.064" y2="283.021" gradientUnits="userSpaceOnUse">
<stop stop-color="#0F47B8"/>
<stop offset="1" stop-color="#477CE7"/>
</linearGradient>
<linearGradient id="paint72_linear_1_2" x1="248.129" y1="278.972" x2="248.162" y2="278.448" gradientUnits="userSpaceOnUse">
<stop stop-color="#D5214B"/>
<stop offset="1" stop-color="#0F47B8"/>
</linearGradient>
<linearGradient id="paint73_linear_1_2" x1="242.589" y1="277.847" x2="242.589" y2="280.835" gradientUnits="userSpaceOnUse">
<stop stop-color="#0F47B8"/>
<stop offset="1" stop-color="#477CE7"/>
</linearGradient>
<linearGradient id="paint74_linear_1_2" x1="219.821" y1="267.475" x2="219.854" y2="266.952" gradientUnits="userSpaceOnUse">
<stop stop-color="#D5214B"/>
<stop offset="1" stop-color="#0F47B8"/>
</linearGradient>
<linearGradient id="paint75_linear_1_2" x1="214.281" y1="266.35" x2="214.281" y2="269.338" gradientUnits="userSpaceOnUse">
<stop stop-color="#0F47B8"/>
<stop offset="1" stop-color="#477CE7"/>
</linearGradient>
<linearGradient id="paint76_linear_1_2" x1="196.451" y1="247.793" x2="196.484" y2="247.27" gradientUnits="userSpaceOnUse">
<stop stop-color="#D5214B"/>
<stop offset="1" stop-color="#0F47B8"/>
</linearGradient>
<linearGradient id="paint77_linear_1_2" x1="190.911" y1="246.669" x2="190.911" y2="249.657" gradientUnits="userSpaceOnUse">
<stop stop-color="#0F47B8"/>
<stop offset="1" stop-color="#477CE7"/>
</linearGradient>
<linearGradient id="paint78_linear_1_2" x1="180.307" y1="221.853" x2="180.34" y2="221.33" gradientUnits="userSpaceOnUse">
<stop stop-color="#D5214B"/>
<stop offset="1" stop-color="#0F47B8"/>
</linearGradient>
<linearGradient id="paint79_linear_1_2" x1="174.766" y1="220.729" x2="174.766" y2="223.716" gradientUnits="userSpaceOnUse">
<stop stop-color="#0F47B8"/>
<stop offset="1" stop-color="#477CE7"/>
</linearGradient>
<linearGradient id="paint80_linear_1_2" x1="167.428" y1="191.069" x2="167.428" y2="194.057" gradientUnits="userSpaceOnUse">
<stop stop-color="#D5214B"/>
<stop offset="1" stop-color="#EC5578"/>
</linearGradient>
<linearGradient id="paint81_linear_1_2" x1="167.428" y1="191.069" x2="167.428" y2="194.057" gradientUnits="userSpaceOnUse">
<stop stop-color="#0F47B8"/>
<stop offset="1" stop-color="#477CE7"/>
</linearGradient>
<clipPath id="clip0_1_2">
<rect width="542" height="538" fill="white"/>
</clipPath>
</defs>
</svg>
